<?xml version="1.0" encoding="UTF-8" standalone="no"?>
<svg
   xmlns:dc="http://purl.org/dc/elements/1.1/"
   xmlns:cc="http://creativecommons.org/ns#"
   xmlns:rdf="http://www.w3.org/1999/02/22-rdf-syntax-ns#"
   xmlns:svg="http://www.w3.org/2000/svg"
   xmlns="http://www.w3.org/2000/svg"
   xmlns:sodipodi="http://sodipodi.sourceforge.net/DTD/sodipodi-0.dtd"
   xmlns:inkscape="http://www.inkscape.org/namespaces/inkscape"
   id="svg8"
   version="1.1"
   viewBox="0 0 61.227868 24.40717"
   height="92.247574"
   width="231.41241"
   sodipodi:docname="boat.svg"
   inkscape:version="0.92.4 (unknown)">
  <sodipodi:namedview
     pagecolor="#8bdbff"
     bordercolor="#666666"
     borderopacity="1"
     objecttolerance="10"
     gridtolerance="10"
     guidetolerance="10"
     inkscape:pageopacity="0.69019608"
     inkscape:pageshadow="2"
     inkscape:window-width="1920"
     inkscape:window-height="1043"
     id="namedview876"
     showgrid="false"
     inkscape:pagecheckerboard="false"
     inkscape:zoom="4.0140862"
     inkscape:cx="100.67039"
     inkscape:cy="54.187193"
     inkscape:window-x="1280"
     inkscape:window-y="0"
     inkscape:window-maximized="1"
     inkscape:current-layer="layer1" />
  <defs
     id="defs2">
    <clipPath
       id="clipPath932"
       clipPathUnits="userSpaceOnUse">
      <rect
         y="242.86594"
         x="15.779971"
         height="42.079922"
         width="40.436172"
         id="rect934"
         style="fill:#0000ff;fill-rule:evenodd;stroke-width:0.26458332" />
    </clipPath>
    <clipPath
       id="clipPath1022"
       clipPathUnits="userSpaceOnUse">
      <rect
         y="197.71768"
         x="-14.903305"
         height="89.639008"
         width="198.34546"
         id="rect1024"
         style="opacity:0.54248364;fill:#0000ff;fill-rule:evenodd;stroke-width:0.24074687" />
    </clipPath>
    <clipPath
       id="clipPath1541"
       clipPathUnits="userSpaceOnUse">
      <path
         id="path1543"
         d="M 4.3285336,265.87839 61.421346,267.24818 57.42156,275.5765 7.1229034,275.24775 Z"
         style="fill:#64ffa8;fill-opacity:0.38235294;stroke:none;stroke-width:0.26458332px;stroke-linecap:butt;stroke-linejoin:miter;stroke-opacity:1" />
    </clipPath>
  </defs>
  <metadata
     id="metadata5">
    <rdf:RDF>
      <cc:Work
         rdf:about="">
        <dc:format>image/svg+xml</dc:format>
        <dc:type
           rdf:resource="http://purl.org/dc/dcmitype/StillImage" />
        <dc:title></dc:title>
      </cc:Work>
    </rdf:RDF>
  </metadata>
  <g
     style="opacity:1"
     transform="translate(-2.7434865,-250.29668)"
     id="layer1">
    <path
       id="path1503"
       transform="matrix(0.26458333,0,0,0.26458333,0,229.26667)"
       d="m 20.672376,94.885476 0.03661,3.522727 7.455078,0.103516 1.759766,40.484371 h 2.173828 l -1.863281,-40.484371 68.958984,0.93164 c 9.710069,0.13115 15.347819,3.878921 16.361329,11.802731 l 4.55469,35.61914 78.48632,-7.66211 -13.61614,-23.29673 -38.98347,0.72447 -9.21484,-16.669922 c -8.02253,-2.091491 -27.32558,-3.227889 -51.487293,-3.827987 -0.266507,-0.0066 -0.361988,-1.191119 -0.361988,-1.191119 0,0 -42.072028,-0.154023 -64.207819,-0.159903 z m 96.181144,5.309834 17.27734,1.68555 10.25195,15.30078 -25.8457,1.9043 z m 67.57812,18.67188 4.17383,7.24804 -17.42969,2.31055 -17.34961,1.86133 -5.125,-10.39649 17.49805,-0.88867 z"
       style="display:inline;opacity:1;fill:#ffffff;fill-opacity:1;stroke:none;stroke-width:0.99999994px;stroke-linecap:butt;stroke-linejoin:miter;stroke-opacity:1"
       inkscape:connector-curvature="0" />
    <path
       clip-path="url(#clipPath1541)"
       id="path1026"
       d="m 4.3312871,264.18926 6.0101999,7.20746 c 0.197694,0.23708 0.295766,0.35274 0.575597,0.42707 l 1.40626,0.37355 c 0.179217,0.0476 0.26331,0.10426 0.388676,0.22827 l 0.427786,0.42313 c 0.49675,0.49135 0.613488,0.53526 1.268899,0.53194 l 40.374562,-0.21261 c 0.162847,0 0.457212,-0.10878 0.596473,-0.39399 0.484997,-1.128 -0.319358,-1.68712 0.408996,-2.88928 2.380419,-3.92893 4.87516,-7.85787 7.385939,-11.7868 l -1.186503,0.0656 c 0.460996,1.30516 -1.738463,2.93773 -17.983376,5.48255 -3.684889,2.27372 -28.72379,1.37996 -39.6735089,0.54311 z"
       style="display:inline;opacity:1;fill:#a82a20;fill-opacity:1;stroke:none;stroke-width:0.26458332px;stroke-linecap:butt;stroke-linejoin:miter;stroke-opacity:1"
       inkscape:connector-curvature="0" />
    <path
       transform="matrix(0.26458333,0,0,0.26458333,0,229.26667)"
       id="path1528"
       d="M 225.88086,129.26367 C 156.1425,148.13008 89.039975,145.78186 46.994141,145.48047 l 0.546875,4.64453 70.902344,-0.13672 4.13867,5.05469 c 67.61849,2.2763 77.68881,-7.71283 91.46289,-6.73047 3.88781,-6.34923 7.83505,-12.6996 11.83594,-19.04883 z"
       style="display:inline;opacity:1;fill:#005db4;fill-opacity:1;stroke:none;stroke-width:0.99999994px;stroke-linecap:butt;stroke-linejoin:miter;stroke-opacity:1"
       inkscape:connector-curvature="0" />
    <path
       id="path1482"
       d="m 56.681875,268.54949 c -2.826034,-0.71494 -3.931118,2.43237 -24.272663,1.68483 l -1.068438,-1.31499"
       style="opacity:1;fill:none;stroke:#ffffff;stroke-width:0.26458332px;stroke-linecap:butt;stroke-linejoin:miter;stroke-opacity:1"
       inkscape:connector-curvature="0" />
    <path
       id="path1562"
       d="m 12.656852,268.90562 -0.410934,1.08214 c 17.627524,0.34843 30.643366,-0.42345 36.682953,-1.75333 l 0.438331,-0.6575 c -5.48542,0.89082 -14.82972,1.4535 -36.71035,1.32869 z"
       style="fill:#000000;fill-opacity:0.34803922;stroke:none;stroke-width:0.26458332px;stroke-linecap:butt;stroke-linejoin:miter;stroke-opacity:1"
       inkscape:connector-curvature="0" />
    <path
       id="path1480"
       d="m 12.629456,269.00151 c 14.847396,0.0648 29.094816,-0.0273 37.61441,-1.61635"
       style="opacity:1;fill:none;stroke:#ffffff;stroke-width:0.26458332px;stroke-linecap:butt;stroke-linejoin:miter;stroke-opacity:1"
       inkscape:connector-curvature="0" />
    <path
       transform="matrix(0.26458333,0,0,0.26458333,0,229.26667)"
       id="path1505"
       d="m 19.097656,124.86719 0.199219,0.70312 c 0.854649,3.01115 0.931171,5.61738 0.708984,8.10352 l 0.996094,0.0898 c 0.211155,-2.36266 0.01606,-4.95457 -0.6875,-7.78906 5.106783,0.4791 9.797656,0.89087 14.273438,1.26953 l -0.402344,9.3457 1.003906,0.0449 0.400391,-9.30469 c 3.564873,0.29905 6.998274,0.57685 10.18164,0.81836 l -0.298828,8.86328 1.003906,0.0371 0.296876,-8.82617 c 3.675813,0.2756 6.870057,0.48637 10.060546,0.69336 l -0.488281,8.81054 0.996094,0.0527 0.488281,-8.80274 c 3.49998,0.22308 6.828895,0.42604 9.777344,0.57813 l -0.388672,8.27539 0.998047,0.0527 0.388672,-8.28125 c 3.698414,0.18516 6.974964,0.32508 9.86914,0.42188 l -0.380859,8.33203 0.996094,0.043 0.382812,-8.34375 c 3.671682,0.11542 6.854972,0.18808 9.375,0.21484 -0.01266,0.92584 -0.0957,6.98859 -0.0957,7.79688 h 1.003906 c 0,-0.73027 0.08293,-6.83989 0.0957,-7.78321 3.386375,0.0284 5.811926,0.01 7.507813,0.0332 0.262742,0.003 0.407437,0.0191 0.638672,0.0254 l 0.285156,8.56836 0.996094,-0.0312 -0.283203,-8.49805 c 0.755067,0.0466 1.371216,0.11404 1.759766,0.23047 0.63447,0.19011 0.90777,0.44256 1.32812,1.01758 0.84071,1.14999 1.98769,3.48161 6.18555,7.52343 l 0.69531,-0.72461 c -4.12639,-3.97304 -5.11147,-6.07974 -6.06836,-7.38867 -0.47844,-0.65446 -1.02307,-1.1396 -1.85351,-1.38867 -0.83044,-0.24907 -1.916749,-0.3137 -3.675782,-0.33789 -7.036143,-0.0975 -25.015483,0.57424 -77.546876,-4.37891 z"
       style="color:#000000;font-style:normal;font-variant:normal;font-weight:normal;font-stretch:normal;font-size:medium;line-height:normal;font-family:sans-serif;font-variant-ligatures:normal;font-variant-position:normal;font-variant-caps:normal;font-variant-numeric:normal;font-variant-alternates:normal;font-feature-settings:normal;text-indent:0;text-align:start;text-decoration:none;text-decoration-line:none;text-decoration-style:solid;text-decoration-color:#000000;letter-spacing:normal;word-spacing:normal;text-transform:none;writing-mode:lr-tb;direction:ltr;text-orientation:mixed;dominant-baseline:auto;baseline-shift:baseline;text-anchor:start;white-space:normal;shape-padding:0;clip-rule:nonzero;display:inline;overflow:visible;visibility:visible;opacity:1;isolation:auto;mix-blend-mode:normal;color-interpolation:sRGB;color-interpolation-filters:linearRGB;solid-color:#000000;solid-opacity:1;vector-effect:none;fill:#fefefe;fill-opacity:1;fill-rule:nonzero;stroke:none;stroke-width:0.99999994px;stroke-linecap:butt;stroke-linejoin:miter;stroke-miterlimit:4;stroke-dasharray:none;stroke-dashoffset:0;stroke-opacity:1;color-rendering:auto;image-rendering:auto;shape-rendering:auto;text-rendering:auto;enable-background:accumulate"
       inkscape:connector-curvature="0" />
    <path
       transform="matrix(0.26458333,0,0,0.26458333,0,229.26667)"
       id="path1616"
       d="m 19.327207,125.73669 c 0.323362,1.13929 0.503284,2.05456 0.629829,3.09335 0.304159,0.0292 0.596907,0.0532 0.900391,0.082 -0.126225,-0.95218 -0.291376,-1.92389 -0.542969,-2.9375 5.106783,0.4791 9.797656,0.89087 14.273438,1.26953 l -0.123047,2.84375 c 0.33672,0.0266 0.668176,0.05 1.003906,0.0762 l 0.121094,-2.83398 c 3.564873,0.29905 6.998274,0.57685 10.18164,0.81836 l -0.0918,2.75195 c 0.336028,0.0221 0.667065,0.0428 1.001953,0.0645 l 0.0918,-2.74218 c 3.675812,0.2756 6.870057,0.48637 10.060546,0.69336 l -0.146484,2.63671 c 0.333732,0.0176 0.663672,0.0337 0.996094,0.0508 l 0.146484,-2.62696 c 3.49998,0.22308 6.828895,0.42604 9.777344,0.57813 l -0.117188,2.49609 c 0.333699,0.0131 0.665885,0.0264 0.998047,0.0391 l 0.117188,-2.48828 c 3.698414,0.18516 6.974964,0.32508 9.86914,0.42188 l -0.109375,2.38086 c 0.3316,0.008 0.668257,0.0195 0.998047,0.0273 l 0.109375,-2.37695 c 3.671682,0.11542 6.854972,0.18808 9.375,0.21484 -0.0038,0.27646 -0.01705,1.4123 -0.0293,2.32813 0.330633,0.004 0.67545,0.0106 1.003907,0.0137 0.01228,-0.92443 0.02548,-2.04596 0.0293,-2.32813 3.386375,0.0284 5.811926,0.01 7.507813,0.0332 0.262742,0.003 0.407437,0.0191 0.638672,0.0254 l 0.07617,2.29687 c 0.326374,-9.8e-4 0.674242,0.003 0.998047,0.002 l -0.07617,-2.25976 c -2.837105,-0.0616 -36.418428,-0.60997 -79.668892,-4.64427 z"
       style="fill:#000000;fill-opacity:0.19607843;stroke:none;stroke-width:0.99999994px;stroke-linecap:butt;stroke-linejoin:miter;stroke-opacity:1"
       inkscape:connector-curvature="0" />
    <path
       id="path1721"
       d="m 38.917833,261.16227 1.433508,2.8864 4.10681,-0.40681"
       style="fill:none;stroke:#000000;stroke-width:0.63499999;stroke-linecap:butt;stroke-linejoin:miter;stroke-miterlimit:4;stroke-dasharray:none;stroke-opacity:0.35294118"
       inkscape:connector-curvature="0" />
    <path
       transform="matrix(0.26458333,0,0,0.26458333,0,229.26667)"
       id="rect1521"
       d="m 166.31641,129.9375 c -13.92714,8.59359 -108.560552,5.21563 -149.945316,2.05273 l 10.867187,13.03321 c 31.990609,1.19764 136.123199,3.65578 198.593749,-15.6836 3.44502,-5.46756 6.91647,-10.93474 10.40356,-16.40215 -13.80247,8.1799 -37.83637,11.45311 -69.91918,16.99981 z"
       style="opacity:1;fill:#fff5e5;fill-opacity:1;fill-rule:evenodd;stroke:none;stroke-width:0.99999994"
       inkscape:connector-curvature="0" />
    <path
       id="path1689"
       transform="matrix(0.26458333,0,0,0.26458333,0,229.26667)"
       d="m 184.38477,117.87695 c -12.2856,0.31862 -25.04987,0.6564 -35.63282,1.51367 a 0.87882804,0.87882804 0 0 0 -0.70898,1.26954 l 5.13867,10.14257 a 0.87882804,0.87882804 0 0 0 0.88672,0.47266 l 34.6875,-3.98633 a 0.87882804,0.87882804 0 0 0 0.66992,-1.29883 l -4.24414,-7.66211 a 0.87882804,0.87882804 0 0 0 -0.79687,-0.45117 z m -0.48047,1.7793 3.34375,6.03125 -15.24219,1.75391 -4.2793,-7.29102 c 5.31571,-0.19863 10.76829,-0.3537 16.17774,-0.49414 z m -18.16602,0.57227 4.35547,7.43359 -15.62109,1.79687 -4.24414,-8.37695 c 4.82863,-0.36795 10.08327,-0.63631 15.50976,-0.85351 z"
       style="color:#000000;font-style:normal;font-variant:normal;font-weight:normal;font-stretch:normal;font-size:medium;line-height:normal;font-family:sans-serif;font-variant-ligatures:normal;font-variant-position:normal;font-variant-caps:normal;font-variant-numeric:normal;font-variant-alternates:normal;font-feature-settings:normal;text-indent:0;text-align:start;text-decoration:none;text-decoration-line:none;text-decoration-style:solid;text-decoration-color:#000000;letter-spacing:normal;word-spacing:normal;text-transform:none;writing-mode:lr-tb;direction:ltr;text-orientation:mixed;dominant-baseline:auto;baseline-shift:baseline;text-anchor:start;white-space:normal;shape-padding:0;clip-rule:nonzero;display:inline;overflow:visible;visibility:visible;opacity:1;isolation:auto;mix-blend-mode:normal;color-interpolation:sRGB;color-interpolation-filters:linearRGB;solid-color:#000000;solid-opacity:1;vector-effect:none;fill:#005db4;fill-opacity:1;fill-rule:nonzero;stroke:none;stroke-width:1.75748038;stroke-linecap:butt;stroke-linejoin:round;stroke-miterlimit:4;stroke-dasharray:none;stroke-dashoffset:0;stroke-opacity:1;color-rendering:auto;image-rendering:auto;shape-rendering:auto;text-rendering:auto;enable-background:accumulate"
       inkscape:connector-curvature="0" />
    <path
       id="path1547"
       transform="matrix(0.26458333,0,0,0.26458333,0,229.26667)"
       d="m 213.03125,121.30859 c -12.67304,3.02691 -28.3716,5.4576 -46.71484,8.62891 -13.2279,8.16213 -99.171623,5.52278 -143.236332,2.52734 l -4.857422,0.31836 c 8.520353,1.41638 3.572141,3.46207 19.259766,4.35547 32.564594,1.85455 56.389084,5.11227 75.230468,7.83985 26.66269,-1.09385 55.37246,-3.43832 81.11133,-8.06446 5.82002,-3.99616 12.10844,-9.1446 19.20703,-15.60547 z"
       style="fill:#000000;fill-opacity:0.13191492;stroke:none;stroke-width:0.99999994px;stroke-linecap:butt;stroke-linejoin:miter;stroke-opacity:1"
       inkscape:connector-curvature="0" />
    <path
       id="path1556"
       transform="matrix(0.26458333,0,0,0.26458333,0,229.26667)"
       d="M 217.3418,131.91992 C 149.62517,149.05128 89.050865,145.20244 27.230469,145.01367 l 3.458984,4.14844 C 99.910716,149.57186 179.4578,146.24655 217.3418,131.91992 Z"
       clip-path="none"
       style="display:inline;opacity:1;fill:#000000;fill-opacity:0.5;stroke:none;stroke-width:0.99999994px;stroke-linecap:butt;stroke-linejoin:miter;stroke-opacity:1"
       inkscape:connector-curvature="0" />
    <path
       id="path1564"
       transform="matrix(0.26458333,0,0,0.26458333,0,229.26667)"
       d="m 34.623047,153.87891 4.462891,5.35351 c 0.747189,0.89605 1.118152,1.33235 2.175781,1.61328 l 5.314453,1.41211 c 0.677355,0.17991 0.994926,0.39458 1.46875,0.86328 l 1.617187,1.59766 c 1.877481,1.85707 2.319731,2.02427 4.796875,2.01172 l 84.113286,-0.44336 -24.92802,-3.85841 c -7.48762,-1.15895 -38.931994,-0.98942 -56.547075,-3.29065 -4.885077,-0.63818 -6.66554,-3.50175 -8.042442,-3.71322 -1.986971,-0.30517 -14.431686,-1.54592 -14.431686,-1.54592 z"
       style="fill:#000000;fill-opacity:0.34803922;stroke:none;stroke-width:0.99999994px;stroke-linecap:butt;stroke-linejoin:miter;stroke-opacity:1"
       inkscape:connector-curvature="0" />
    <path
       id="path1028"
       d="m 62.466797,258.9668 -0.158203,0.0918 c -1.838613,1.06422 -5.68344,2.14174 -9.429688,2.96289 -3.746248,0.82116 -7.41608,1.39728 -8.921875,1.50196 l -0.06836,0.004 -0.04883,0.0488 c -0.201223,0.20475 -0.86698,0.45853 -1.851563,0.64453 -0.984582,0.18601 -2.293348,0.33249 -3.833984,0.44336 -3.081273,0.22174 -7.089428,0.30155 -11.314453,0.28516 -8.45005,-0.0328 -17.7764945,-0.45046 -22.3320315,-0.88086 l -0.4414063,-0.043 3.1484376,3.76953 0.083984,0.002 c 32.1704402,0.81109 42.8693102,-1.5334 51.9685812,-3.95851 0.110479,-0.0347 0.307262,-0.0687 0.307262,-0.0687 0,0 0.09039,-0.14497 0.295021,-0.46484 l -0.168517,0.0408 c -8.807419,2.36341 -18.73012,4.97728 -48.223746,4.17362 -0.859704,-0.0234 -1.7673945,-0.13505 -2.3699645,-0.21063 -0.5070629,-0.0636 -0.6405453,-0.32556 -0.8185447,-0.48972 -0.2332637,-0.21514 -0.4972929,-0.24579 -0.7551144,-0.28898 -0.4354412,-0.0729 -0.6579682,-0.17967 -0.6788674,-0.47373 -0.013947,-0.19623 -0.258148,-0.29839 -0.4354638,-0.35163 -0.2325271,-0.0698 -0.1448288,-0.29671 -0.2343655,-0.39369 -0.2636453,-0.28557 -0.6978804,-0.22253 -0.6900507,-0.74744 4.66677,0.42387 13.04261,0.71873 21.344789,0.75095 4.230512,0.0164 8.242251,-0.0642 11.339844,-0.28711 1.548796,-0.11145 2.868844,-0.25877 3.876953,-0.44922 1.008109,-0.19044 1.699956,-0.39707 2.042968,-0.74609 l -0.117187,0.0547 c 1.55652,-0.1082 5.214648,-0.68561 8.974609,-1.50977 3.759961,-0.82415 7.600004,-1.8838 9.535157,-3.0039 l 0.15625,-0.0918 z"
       style="color:#000000;font-style:normal;font-variant:normal;font-weight:normal;font-stretch:normal;font-size:medium;line-height:normal;font-family:sans-serif;font-variant-ligatures:normal;font-variant-position:normal;font-variant-caps:normal;font-variant-numeric:normal;font-variant-alternates:normal;font-feature-settings:normal;text-indent:0;text-align:start;text-decoration:none;text-decoration-line:none;text-decoration-style:solid;text-decoration-color:#000000;letter-spacing:normal;word-spacing:normal;text-transform:none;writing-mode:lr-tb;direction:ltr;text-orientation:mixed;dominant-baseline:auto;baseline-shift:baseline;text-anchor:start;white-space:normal;shape-padding:0;clip-rule:nonzero;display:inline;overflow:visible;visibility:visible;opacity:1;isolation:auto;mix-blend-mode:normal;color-interpolation:sRGB;color-interpolation-filters:linearRGB;solid-color:#000000;solid-opacity:1;vector-effect:none;fill:#ea4521;fill-opacity:1;fill-rule:nonzero;stroke:none;stroke-width:0.36500001;stroke-linecap:square;stroke-linejoin:miter;stroke-miterlimit:4;stroke-dasharray:none;stroke-dashoffset:0;stroke-opacity:1;color-rendering:auto;image-rendering:auto;shape-rendering:auto;text-rendering:auto;enable-background:accumulate"
       inkscape:connector-curvature="0" />
    <path
       transform="matrix(0.26458333,0,0,0.26458333,0,229.26667)"
       id="path1571"
       d="m 236.39062,112.69922 -11.6375,5.37654 -31.47773,47.91252 13.7793,-0.0625 c 0.61548,0 1.72756,-0.41032 2.2539,-1.48828 1.83306,-4.26331 -1.20596,-6.37633 1.54688,-10.91992 8.24337,-13.60585 16.85204,-27.2125 25.53515,-40.81836 z"
       style="fill:#ffffff;fill-opacity:0.19607843;stroke:none;stroke-width:0.99999994px;stroke-linecap:butt;stroke-linejoin:miter;stroke-opacity:1"
       inkscape:connector-curvature="0" />
    <path
       id="path1790"
       transform="matrix(0.26458333,0,0,0.26458333,0,229.26667)"
       d="m 183.72656,118.97461 c -12.2856,0.31861 -25.04986,0.6564 -35.63281,1.51367 a 0.87882804,0.87882804 0 0 0 -0.10937,0.0176 0.87882803,0.87882803 0 0 0 0.0586,0.1543 l 5.13867,10.14257 a 0.87882803,0.87882803 0 0 0 0.88672,0.47266 l 34.6875,-3.98633 a 0.87882803,0.87882803 0 0 0 0.0879,-0.0137 0.87882804,0.87882804 0 0 0 -0.0762,-0.1875 l -4.24414,-7.66211 a 0.87882804,0.87882804 0 0 0 -0.79688,-0.45117 z m 0.17774,0.68164 3.34375,6.03125 -1.19141,0.13672 0.5332,0.96094 -15.24218,1.7539 -4.2793,-7.29101 c 0.4216,-0.0158 0.85411,-0.0277 1.27734,-0.043 l -0.61914,-1.05469 c 5.31571,-0.19863 10.76829,-0.3537 16.17774,-0.49414 z m -18.16602,0.57227 4.35547,7.43359 -1.21875,0.14062 0.56055,0.95704 -15.6211,1.79687 -4.24414,-8.37695 c 0.37704,-0.0287 0.79367,-0.0486 1.17578,-0.0762 l -0.51757,-1.02149 c 4.82863,-0.36795 10.08327,-0.63631 15.50976,-0.85351 z"
       style="color:#000000;font-style:normal;font-variant:normal;font-weight:normal;font-stretch:normal;font-size:medium;line-height:normal;font-family:sans-serif;font-variant-ligatures:normal;font-variant-position:normal;font-variant-caps:normal;font-variant-numeric:normal;font-variant-alternates:normal;font-feature-settings:normal;text-indent:0;text-align:start;text-decoration:none;text-decoration-line:none;text-decoration-style:solid;text-decoration-color:#000000;letter-spacing:normal;word-spacing:normal;text-transform:none;writing-mode:lr-tb;direction:ltr;text-orientation:mixed;dominant-baseline:auto;baseline-shift:baseline;text-anchor:start;white-space:normal;shape-padding:0;clip-rule:nonzero;display:inline;overflow:visible;visibility:visible;opacity:1;isolation:auto;mix-blend-mode:normal;color-interpolation:sRGB;color-interpolation-filters:linearRGB;solid-color:#000000;solid-opacity:1;vector-effect:none;fill:#00386d;fill-opacity:1;fill-rule:nonzero;stroke:none;stroke-width:1.75748038;stroke-linecap:butt;stroke-linejoin:round;stroke-miterlimit:4;stroke-dasharray:none;stroke-dashoffset:0;stroke-opacity:1;color-rendering:auto;image-rendering:auto;shape-rendering:auto;text-rendering:auto;enable-background:accumulate"
       inkscape:connector-curvature="0" />
    <path
       style="color:#000000;font-style:normal;font-variant:normal;font-weight:normal;font-stretch:normal;font-size:medium;line-height:normal;font-family:sans-serif;font-variant-ligatures:normal;font-variant-position:normal;font-variant-caps:normal;font-variant-numeric:normal;font-variant-alternates:normal;font-feature-settings:normal;text-indent:0;text-align:start;text-decoration:none;text-decoration-line:none;text-decoration-style:solid;text-decoration-color:#000000;letter-spacing:normal;word-spacing:normal;text-transform:none;writing-mode:lr-tb;direction:ltr;text-orientation:mixed;dominant-baseline:auto;baseline-shift:baseline;text-anchor:start;white-space:normal;shape-padding:0;clip-rule:nonzero;display:inline;overflow:visible;visibility:visible;opacity:1;isolation:auto;mix-blend-mode:normal;color-interpolation:sRGB;color-interpolation-filters:linearRGB;solid-color:#000000;solid-opacity:1;vector-effect:none;fill:#ea4521;fill-opacity:1;fill-rule:nonzero;stroke:none;stroke-width:0.36500001;stroke-linecap:square;stroke-linejoin:miter;stroke-miterlimit:4;stroke-dasharray:none;stroke-dashoffset:0;stroke-opacity:1;color-rendering:auto;image-rendering:auto;shape-rendering:auto;text-rendering:auto;enable-background:accumulate"
       d="m 62.466797,258.9668 -0.158203,0.0918 c -1.838613,1.06422 -5.68344,2.14174 -9.429688,2.96289 -3.746248,0.82116 -7.41608,1.39728 -8.921875,1.50196 l -0.06836,0.004 -0.04883,0.0488 c -0.201223,0.20475 -0.86698,0.45853 -1.851563,0.64453 -0.984582,0.18601 -2.293348,0.33249 -3.833984,0.44336 -3.081273,0.22174 -7.089428,0.30155 -11.314453,0.28516 -8.45005,-0.0328 -17.7764945,-0.45046 -22.3320315,-0.88086 l -0.4414063,-0.043 3.1484376,3.76953 0.083984,0.002 c 0.624728,-0.66925 0.7042954,-0.36299 1.8086367,-0.48826 -0.5070629,-0.0636 -0.6405453,-0.32556 -0.8185447,-0.48972 -0.2332637,-0.21514 -0.4972929,-0.24579 -0.7551144,-0.28898 -0.4354412,-0.0729 -0.6579682,-0.17967 -0.6788674,-0.47373 -0.013947,-0.19623 -0.258148,-0.29839 -0.4354638,-0.35163 -0.2325271,-0.0698 -0.1448288,-0.29671 -0.2343655,-0.39369 -0.2636453,-0.28557 -0.6978804,-0.22253 -0.6900507,-0.74744 4.66677,0.42387 13.04261,0.71873 21.344789,0.75095 4.230512,0.0164 8.242251,-0.0642 11.339844,-0.28711 1.548796,-0.11145 2.868844,-0.25877 3.876953,-0.44922 1.008109,-0.19044 1.699956,-0.39707 2.042968,-0.74609 l -0.117187,0.0547 c 1.55652,-0.1082 5.214648,-0.68561 8.974609,-1.50977 3.759961,-0.82415 7.600004,-1.8838 9.535157,-3.0039 l 0.15625,-0.0918 z"
       id="path1592"
       inkscape:connector-curvature="0" />
    <path
       style="color:#000000;font-style:normal;font-variant:normal;font-weight:normal;font-stretch:normal;font-size:medium;line-height:normal;font-family:sans-serif;font-variant-ligatures:normal;font-variant-position:normal;font-variant-caps:normal;font-variant-numeric:normal;font-variant-alternates:normal;font-feature-settings:normal;text-indent:0;text-align:start;text-decoration:none;text-decoration-line:none;text-decoration-style:solid;text-decoration-color:#000000;letter-spacing:normal;word-spacing:normal;text-transform:none;writing-mode:lr-tb;direction:ltr;text-orientation:mixed;dominant-baseline:auto;baseline-shift:baseline;text-anchor:start;white-space:normal;shape-padding:0;clip-rule:nonzero;display:inline;overflow:visible;visibility:visible;opacity:1;isolation:auto;mix-blend-mode:normal;color-interpolation:sRGB;color-interpolation-filters:linearRGB;solid-color:#000000;solid-opacity:1;vector-effect:none;fill:#a42a10;fill-opacity:1;fill-rule:nonzero;stroke:none;stroke-width:0.36500001;stroke-linecap:square;stroke-linejoin:miter;stroke-miterlimit:4;stroke-dasharray:none;stroke-dashoffset:0;stroke-opacity:1;color-rendering:auto;image-rendering:auto;shape-rendering:auto;text-rendering:auto;enable-background:accumulate"
       d="m 52.878906,262.21521 c -3.745439,0.82484 -7.361288,1.38163 -8.867083,1.48631 l -0.06836,0.004 -0.04883,0.0488 c -0.201223,0.20475 -0.86698,0.44483 -1.851563,0.63083 -0.984582,0.18601 -2.34814,0.35989 -3.888776,0.47076 -3.081273,0.22174 -7.062032,0.30155 -11.287057,0.28516 -7.710374,-0.0299 -16.418022,-0.31249 -21.2974369,-0.70058 -0.1078291,0.0857 -0.1816261,0.12339 -0.044122,0.13127 4.7256809,0.4078 13.2085449,0.71133 21.3141659,0.74279 4.230512,0.0164 8.242251,-0.0642 11.339844,-0.28711 1.548796,-0.11145 2.868844,-0.25877 3.876953,-0.44922 1.008109,-0.19044 1.699956,-0.39707 2.042968,-0.74609 l -0.117187,0.0547 c 1.55652,-0.1082 5.214648,-0.68561 8.974609,-1.50977 3.759961,-0.82415 7.600004,-1.8838 9.535157,-3.0039 l 0.15625,-0.0918 c -4.66289,2.0338 -8.4263,2.63803 -9.769532,2.93385 z"
       id="path1552"
       inkscape:connector-curvature="0" />
    <path
       id="path1715"
       transform="matrix(0.26458333,0,0,0.26458333,0,229.26667)"
       d="m 185.4043,116.63086 c -21.34412,0.1098 -44.05567,0.69077 -67.10157,3.07812 l 0.17579,1.68946 c 23.30865,-2.4146 46.31614,-2.97334 67.91796,-3.07032 z"
       style="color:#000000;font-style:normal;font-variant:normal;font-weight:normal;font-stretch:normal;font-size:medium;line-height:normal;font-family:sans-serif;font-variant-ligatures:normal;font-variant-position:normal;font-variant-caps:normal;font-variant-numeric:normal;font-variant-alternates:normal;font-feature-settings:normal;text-indent:0;text-align:start;text-decoration:none;text-decoration-line:none;text-decoration-style:solid;text-decoration-color:#000000;letter-spacing:normal;word-spacing:normal;text-transform:none;writing-mode:lr-tb;direction:ltr;text-orientation:mixed;dominant-baseline:auto;baseline-shift:baseline;text-anchor:start;white-space:normal;shape-padding:0;clip-rule:nonzero;display:inline;overflow:visible;visibility:visible;opacity:1;isolation:auto;mix-blend-mode:normal;color-interpolation:sRGB;color-interpolation-filters:linearRGB;solid-color:#000000;solid-opacity:1;vector-effect:none;fill:#000000;fill-opacity:0.35294118;fill-rule:nonzero;stroke:none;stroke-width:1.70000005;stroke-linecap:butt;stroke-linejoin:miter;stroke-miterlimit:4;stroke-dasharray:none;stroke-dashoffset:0;stroke-opacity:1;color-rendering:auto;image-rendering:auto;shape-rendering:auto;text-rendering:auto;enable-background:accumulate"
       inkscape:connector-curvature="0" />
    <path
       id="path1717"
       transform="matrix(0.26458333,0,0,0.26458333,0,229.26667)"
       d="m 85.046875,96.757812 -1.070313,1.34375 C 82.981236,98.082813 39.166494,97.2486 20.697266,97.21875 l 0.01172,1.189453 7.455078,0.103516 2.070312,-4e-5 68.958984,0.93164 c 3.14329,0.04246 5.85196,0.469653 8.12305,1.289061 0.70847,0.0339 1.61546,0.0633 2.2539,0.0977 1.41048,0.076 1.62825,0.15412 2.53516,0.23047 0.37474,0.0302 0.34191,0.0326 0.61328,0.0723 l 0.43164,3.7461 c 1.26637,1.70397 2.07802,3.81627 2.4043,6.36718 l 0.84961,6.64453 2.01172,-0.17187 -0.4961,-5.55859 -1.3164,-11.68164 c 0.0839,0.007 0.19328,0.0164 0.27734,0.0234 l -0.0273,-0.30664 17.27734,1.68555 0.15234,0.22852 c 0.038,0.004 0.6211,0.0586 0.6211,0.0586 l 2.30664,-1.43164 -0.17774,-0.31836 c -0.87524,-0.11578 -7.04408,-0.930509 -11.6289,-1.357423 -2.45814,-0.229039 -4.94567,-0.455098 -6.88086,-0.626953 -0.9676,-0.0858 -1.80127,-0.156386 -2.42188,-0.207032 -0.27811,-0.02269 -0.36894,-0.02146 -0.54883,-0.03516 l -0.0703,-0.02344 c -0.68088,-0.219591 -1.17458,-0.222231 -2.13281,-0.302735 -0.95823,-0.0805 -2.19813,-0.159603 -3.625,-0.236328 C 106.87092,97.47547 103.26268,97.335347 99.714895,97.208997 92.619331,96.956147 85.769582,96.77931 85.769582,96.77931 Z"
       style="color:#000000;font-style:normal;font-variant:normal;font-weight:normal;font-stretch:normal;font-size:medium;line-height:normal;font-family:sans-serif;font-variant-ligatures:normal;font-variant-position:normal;font-variant-caps:normal;font-variant-numeric:normal;font-variant-alternates:normal;font-feature-settings:normal;text-indent:0;text-align:start;text-decoration:none;text-decoration-line:none;text-decoration-style:solid;text-decoration-color:#000000;letter-spacing:normal;word-spacing:normal;text-transform:none;writing-mode:lr-tb;direction:ltr;text-orientation:mixed;dominant-baseline:auto;baseline-shift:baseline;text-anchor:start;white-space:normal;shape-padding:0;clip-rule:nonzero;display:inline;overflow:visible;visibility:visible;opacity:1;isolation:auto;mix-blend-mode:normal;color-interpolation:sRGB;color-interpolation-filters:linearRGB;solid-color:#000000;solid-opacity:1;vector-effect:none;fill:#000000;fill-opacity:0.31372549;fill-rule:nonzero;stroke:none;stroke-width:2.9000001;stroke-linecap:butt;stroke-linejoin:miter;stroke-miterlimit:4;stroke-dasharray:none;stroke-dashoffset:0;stroke-opacity:1;color-rendering:auto;image-rendering:auto;shape-rendering:auto;text-rendering:auto;enable-background:accumulate"
       inkscape:connector-curvature="0" />
    <path
       style="fill:none;stroke:#005db4;stroke-width:0.465;stroke-linecap:butt;stroke-linejoin:miter;stroke-miterlimit:4;stroke-dasharray:none;stroke-opacity:1"
       d="m 22.423446,254.71461 c 5.758414,0.0271 9.537744,0.38602 14.218412,1.09583"
       id="path1693"
       inkscape:connector-curvature="0" />
    <path
       id="path1736"
       transform="matrix(0.26458333,0,0,0.26458333,0,229.26667)"
       d="m 28.164062,98.511719 0.353516,8.121091 2.173828,1.81055 -0.457031,-9.931641 z"
       style="fill:#000000;fill-opacity:0.39574471;stroke:none;stroke-width:0.99999994px;stroke-linecap:butt;stroke-linejoin:miter;stroke-opacity:1"
       inkscape:connector-curvature="0" />
    <path
       transform="matrix(0.26458333,0,0,0.26458333,0,229.26667)"
       id="path1683"
       d="m 116.95117,99.429688 a 0.87882804,0.87882804 0 0 0 -0.85547,0.966792 l 1.83008,18.86133 a 0.87882804,0.87882804 0 0 0 0.95313,0.78907 c 29.90194,-2.72096 48.42516,-2.80641 68.42187,-3.0918 a 0.87902709,0.87902709 0 1 0 -0.0293,-1.75781 c -13.0669,0.1867 -26.77892,0.58536 -42.2246,1.39648 l -10.17969,-15.34766 a 0.87882804,0.87882804 0 0 0 -0.66407,-0.39062 L 117.03906,99.4375 a 0.87882804,0.87882804 0 0 0 -0.0879,-0.0078 z m 0.9961,1.845702 14.74023,1.2207 1.11523,14.73243 c -4.34352,0.24435 -8.87287,0.53077 -14.20898,1.00976 z m 17.03906,3.33594 8.03711,12.11523 c -2.3706,0.13143 -4.72967,0.25773 -7.08594,0.38477 z"
       style="color:#000000;font-style:normal;font-variant:normal;font-weight:normal;font-stretch:normal;font-size:medium;line-height:normal;font-family:sans-serif;font-variant-ligatures:normal;font-variant-position:normal;font-variant-caps:normal;font-variant-numeric:normal;font-variant-alternates:normal;font-feature-settings:normal;text-indent:0;text-align:start;text-decoration:none;text-decoration-line:none;text-decoration-style:solid;text-decoration-color:#000000;letter-spacing:normal;word-spacing:normal;text-transform:none;writing-mode:lr-tb;direction:ltr;text-orientation:mixed;dominant-baseline:auto;baseline-shift:baseline;text-anchor:start;white-space:normal;shape-padding:0;clip-rule:nonzero;display:inline;overflow:visible;visibility:visible;opacity:1;isolation:auto;mix-blend-mode:normal;color-interpolation:sRGB;color-interpolation-filters:linearRGB;solid-color:#000000;solid-opacity:1;vector-effect:none;fill:#ea4521;fill-opacity:1;fill-rule:nonzero;stroke:none;stroke-width:1.75748038;stroke-linecap:round;stroke-linejoin:round;stroke-miterlimit:4;stroke-dasharray:none;stroke-dashoffset:0;stroke-opacity:1;color-rendering:auto;image-rendering:auto;shape-rendering:auto;text-rendering:auto;enable-background:accumulate"
       inkscape:connector-curvature="0" />
    <path
       id="path1746"
       transform="matrix(0.26458333,0,0,0.26458333,0,229.26667)"
       d="m 116.14648,100.53125 a 0.87882804,0.87882804 0 0 0 -0.0371,0.002 l 1.8164,18.72461 a 0.87882803,0.87882803 0 0 0 0.95313,0.78907 c 29.90194,-2.72096 48.42516,-2.80641 68.42187,-3.0918 a 0.87902708,0.87902708 0 0 0 0.0352,-0.002 0.88226525,0.88226525 0 0 0 -0.86914,-0.6621 c -13.06691,0.18633 -26.77893,0.59121 -42.22461,1.40234 l -10.18555,-15.3457 a 0.87882804,0.87882804 0 0 0 -0.6582,-0.39258 l -17.16211,-1.42383 a 0.87882804,0.87882804 0 0 0 -0.0898,0 z m 1.80079,0.74414 14.74023,1.2207 1.11523,14.73243 c -0.28603,0.0161 -0.59889,0.0382 -0.88671,0.0547 l 0.0801,1.04297 c -4.34278,0.24641 -8.87177,0.53475 -14.20703,1.01367 l -1.65234,-16.9707 0.92383,0.0762 z m 17.03906,3.33594 8.03711,12.11523 c -0.49398,0.0274 -0.98351,0.0531 -1.47656,0.0801 l 0.67382,1.01367 c -2.37089,0.13144 -4.73137,0.2606 -7.08789,0.38867 l -0.94922,-12.49414 1.00196,1.50782 z"
       style="color:#000000;font-style:normal;font-variant:normal;font-weight:normal;font-stretch:normal;font-size:medium;line-height:normal;font-family:sans-serif;font-variant-ligatures:normal;font-variant-position:normal;font-variant-caps:normal;font-variant-numeric:normal;font-variant-alternates:normal;font-feature-settings:normal;text-indent:0;text-align:start;text-decoration:none;text-decoration-line:none;text-decoration-style:solid;text-decoration-color:#000000;letter-spacing:normal;word-spacing:normal;text-transform:none;writing-mode:lr-tb;direction:ltr;text-orientation:mixed;dominant-baseline:auto;baseline-shift:baseline;text-anchor:start;white-space:normal;shape-padding:0;clip-rule:nonzero;display:inline;overflow:visible;visibility:visible;opacity:1;isolation:auto;mix-blend-mode:normal;color-interpolation:sRGB;color-interpolation-filters:linearRGB;solid-color:#000000;solid-opacity:1;vector-effect:none;fill:#a42a10;fill-opacity:1;fill-rule:nonzero;stroke:none;stroke-width:2.13543296;stroke-linecap:butt;stroke-linejoin:round;stroke-miterlimit:4;stroke-dasharray:none;stroke-dashoffset:0;stroke-opacity:1;color-rendering:auto;image-rendering:auto;shape-rendering:auto;text-rendering:auto;enable-background:accumulate"
       inkscape:connector-curvature="0" />
    <path
       id="path1774"
       transform="matrix(0.26458333,0,0,0.26458333,0,229.26667)"
       d="m 84.748047,96.339844 -0.0039,0.720703 c 21.461813,0.101164 35.611433,1.427435 52.976563,4.041013 l 0.0918,-0.62304 c -17.4906,-2.652404 -31.72969,-4.005738 -53.064463,-4.138676 z"
       style="color:#000000;font-style:normal;font-variant:normal;font-weight:normal;font-stretch:normal;font-size:medium;line-height:normal;font-family:sans-serif;font-variant-ligatures:normal;font-variant-position:normal;font-variant-caps:normal;font-variant-numeric:normal;font-variant-alternates:normal;font-feature-settings:normal;text-indent:0;text-align:start;text-decoration:none;text-decoration-line:none;text-decoration-style:solid;text-decoration-color:#000000;letter-spacing:normal;word-spacing:normal;text-transform:none;writing-mode:lr-tb;direction:ltr;text-orientation:mixed;dominant-baseline:auto;baseline-shift:baseline;text-anchor:start;white-space:normal;shape-padding:0;clip-rule:nonzero;display:inline;overflow:visible;visibility:visible;opacity:1;isolation:auto;mix-blend-mode:normal;color-interpolation:sRGB;color-interpolation-filters:linearRGB;solid-color:#000000;solid-opacity:1;vector-effect:none;fill:#00386d;fill-opacity:1;fill-rule:nonzero;stroke:none;stroke-width:1.75748038;stroke-linecap:butt;stroke-linejoin:miter;stroke-miterlimit:4;stroke-dasharray:none;stroke-dashoffset:0;stroke-opacity:1;color-rendering:auto;image-rendering:auto;shape-rendering:auto;text-rendering:auto;enable-background:accumulate"
       inkscape:connector-curvature="0" />
    <path
       id="path1795"
       transform="matrix(0.26458333,0,0,0.26458333,0,229.26667)"
       d="m 17.595703,134.03711 9.673828,11.58203 0.316407,0.008 c 4.07151,0.10266 8.037349,0.18929 11.929687,0.26563 -1.679958,-0.16571 -3.25237,-0.34243 -4.134766,-0.52539 -2.722174,-0.56436 -3.966405,-0.75782 -4.777343,-1.09571 -0.810939,-0.338 -0.98628,-1.10867 -1.816407,-1.52343 -0.830126,-0.41477 -2.381855,-0.4864 -3.162109,-0.96485 -0.780254,-0.47845 -0.326209,-0.80083 -1.876953,-2.16211 -0.909079,-0.79801 -1.243696,-1.68052 -2.384766,-2.68164 -1.424381,-1.24966 -2.829718,-2.25238 -3.767578,-2.90234 z"
       style="fill:#000000;fill-opacity:0.19574471;stroke:none;stroke-width:0.99999994px;stroke-linecap:butt;stroke-linejoin:miter;stroke-opacity:1"
       inkscape:connector-curvature="0" />
  </g>
</svg>
