<?xml version="1.0" encoding="UTF-8" standalone="no"?>
<svg
   xmlns:dc="http://purl.org/dc/elements/1.1/"
   xmlns:cc="http://creativecommons.org/ns#"
   xmlns:rdf="http://www.w3.org/1999/02/22-rdf-syntax-ns#"
   xmlns:svg="http://www.w3.org/2000/svg"
   xmlns="http://www.w3.org/2000/svg"
   id="svg8"
   version="1.1"
   viewBox="0 0 54.851262 15.449631"
   height="58.392303"
   width="207.31186">
  <metadata
     id="metadata5">
    <rdf:RDF>
      <cc:Work
         rdf:about="">
        <dc:format>image/svg+xml</dc:format>
        <dc:type
           rdf:resource="http://purl.org/dc/dcmitype/StillImage" />
        <dc:title></dc:title>
      </cc:Work>
    </rdf:RDF>
  </metadata>
  <g
     style="opacity:1"
     transform="translate(-6.6225622,-254.57179)"
     id="layer1">
    <path
       d="m 9.4038622,259.11526 -0.22225,-0.84455 q -0.28575,0.1016 -0.61595,0.1016 -0.32385,0 -0.6096,-0.0953 l -0.22225,0.8382 h -1.11125 l 1.39065,-4.445 h 1.11125 l 1.3906498,4.445 z m -1.2192,-1.7399 q 0.1778,0.0571 0.381,0.0571 0.1016,0 0.19685,-0.0127 0.1016,-0.019 0.1905,-0.0508 l -0.381,-1.6637 z"
       style="font-style:normal;font-variant:normal;font-weight:normal;font-stretch:normal;font-size:6.3499999px;line-height:1.25;font-family:PORT118;-inkscape-font-specification:PORT118;letter-spacing:0px;word-spacing:0px;fill:#FFF;fill-opacity:1;stroke:none;stroke-width:0.26458332"
       id="path868" />
    <path
       d="m 11.088894,254.67021 h 1.67005 q 0.28575,0 0.53975,0.10795 0.254,0.10795 0.43815,0.29845 0.1905,0.1905 0.29845,0.4445 0.10795,0.254 0.10795,0.53975 0,0.27305 -0.09525,0.51435 -0.09525,0.2413 -0.2667,0.42545 -0.1651,0.18415 -0.3937,0.3048 -0.2286,0.12065 -0.48895,0.14605 h -0.6985 v 1.6637 h -1.11125 z m 1.53035,1.8669 q 0.2032,0 0.3429,-0.1397 0.14605,-0.14605 0.14605,-0.34925 0,-0.2032 -0.14605,-0.3429 -0.1397,-0.14605 -0.3429,-0.14605 h -0.4191 v 0.9779 z"
       style="font-style:normal;font-variant:normal;font-weight:normal;font-stretch:normal;font-size:6.3499999px;line-height:1.25;font-family:PORT118;-inkscape-font-specification:PORT118;letter-spacing:0px;word-spacing:0px;fill:#FFF;fill-opacity:1;stroke:none;stroke-width:0.26458332"
       id="path870" />
    <path
       d="m 16.436091,254.67021 q 0.28575,0 0.53975,0.10795 0.254,0.10795 0.4445,0.29845 0.1905,0.1905 0.29845,0.4445 0.10795,0.254 0.10795,0.53975 0,0.3429 -0.1524,0.64135 -0.1524,0.2921 -0.41275,0.4826 l 0.84455,1.9304 h -1.11125 l -0.73025,-1.6637 h -0.381 v 1.6637 h -1.11125 v -4.445 z m -0.55245,1.86055 h 0.4191 q 0.2032,0 0.3429,-0.1397 0.14605,-0.1397 0.14605,-0.3429 0,-0.2032 -0.14605,-0.3429 -0.1397,-0.14605 -0.3429,-0.14605 h -0.4191 z"
       style="font-style:normal;font-variant:normal;font-weight:normal;font-stretch:normal;font-size:6.3499999px;line-height:1.25;font-family:PORT118;-inkscape-font-specification:PORT118;letter-spacing:0px;word-spacing:0px;fill:#FFF;fill-opacity:1;stroke:none;stroke-width:0.26458332"
       id="path872" />
    <path
       d="m 21.733479,255.70541 h -1.94945 v 0.635 h 1.4097 v 0.9906 h -1.4097 v 0.8382 q 0.2159,0.019 0.41275,0.019 0.41275,0 0.79375,-0.0699 0.381,-0.0762 0.74295,-0.20955 v 1.0287 q -0.36195,0.13335 -0.74295,0.2032 -0.381,0.0762 -0.79375,0.0762 -0.40005,0 -0.78105,-0.0699 -0.381,-0.0698 -0.7366,-0.19685 v -4.2799 h 3.05435 z"
       style="font-style:normal;font-variant:normal;font-weight:normal;font-stretch:normal;font-size:6.3499999px;line-height:1.25;font-family:PORT118;-inkscape-font-specification:PORT118;letter-spacing:0px;word-spacing:0px;fill:#FFF;fill-opacity:1;stroke:none;stroke-width:0.26458332"
       id="path874" />
    <path
       d="m 24.585124,259.11521 v -0.83185 l -1.111249,-1.6764 v 2.50825 h -1.11125 v -4.445 h 1.11125 l 1.111249,1.67005 v -1.67005 h 1.11125 v 0 4.445 z"
       style="font-style:normal;font-variant:normal;font-weight:normal;font-stretch:normal;font-size:6.3499999px;line-height:1.25;font-family:PORT118;-inkscape-font-specification:PORT118;letter-spacing:0px;word-spacing:0px;fill:#FFF;fill-opacity:1;stroke:none;stroke-width:0.26458332"
       id="path876" />
    <path
       d="m 26.331375,259.11521 v -4.445 h 2.88925 q 0.2159,0.5207 0.3302,1.08585 0.1143,0.5588 0.1143,1.1557 0,0.59055 -0.1143,1.143 -0.10795,0.5461 -0.31115,1.06045 z m 1.07315,-1.11125 h 1.04775 q 0.0508,-0.2667 0.0762,-0.55245 0.0254,-0.2921 0.0254,-0.57785 0,-0.2921 -0.03175,-0.5588 -0.0254,-0.27305 -0.0762,-0.6096 h -1.0414 z"
       style="font-style:normal;font-variant:normal;font-weight:normal;font-stretch:normal;font-size:6.3499999px;line-height:1.25;font-family:PORT118;-inkscape-font-specification:PORT118;letter-spacing:0px;word-spacing:0px;fill:#FFF;fill-opacity:1;stroke:none;stroke-width:0.26458332"
       id="path878" />
    <path
       d="m 33.354475,255.70541 h -1.94945 v 0.635 h 1.4097 v 0.9906 h -1.4097 v 0.8382 q 0.2159,0.019 0.41275,0.019 0.41275,0 0.79375,-0.0699 0.381,-0.0762 0.74295,-0.20955 v 1.0287 q -0.36195,0.13335 -0.74295,0.2032 -0.381,0.0762 -0.79375,0.0762 -0.40005,0 -0.78105,-0.0699 -0.381,-0.0698 -0.7366,-0.19685 v -4.2799 h 3.05435 z"
       style="font-style:normal;font-variant:normal;font-weight:normal;font-stretch:normal;font-size:6.3499999px;line-height:1.25;font-family:PORT118;-inkscape-font-specification:PORT118;letter-spacing:0px;word-spacing:0px;fill:#FFF;fill-opacity:1;stroke:none;stroke-width:0.26458332"
       id="path880" />
    <path
       d="m 36.20612,259.11521 v -0.83185 l -1.11125,-1.6764 v 2.50825 h -1.11125 v -4.445 h 1.11125 l 1.11125,1.67005 v -1.67005 h 1.11125 v 0 4.445 z"
       style="font-style:normal;font-variant:normal;font-weight:normal;font-stretch:normal;font-size:6.3499999px;line-height:1.25;font-family:PORT118;-inkscape-font-specification:PORT118;letter-spacing:0px;word-spacing:0px;fill:#FFF;fill-opacity:1;stroke:none;stroke-width:0.26458332"
       id="path882" />
    <path
       d="m 37.95237,259.11521 v -4.445 h 2.88925 q 0.2159,0.5207 0.3302,1.08585 0.1143,0.5588 0.1143,1.1557 0,0.59055 -0.1143,1.143 -0.10795,0.5461 -0.31115,1.06045 z m 1.07315,-1.11125 h 1.04775 q 0.0508,-0.2667 0.0762,-0.55245 0.0254,-0.2921 0.0254,-0.57785 0,-0.2921 -0.03175,-0.5588 -0.0254,-0.27305 -0.0762,-0.6096 h -1.0414 z"
       style="font-style:normal;font-variant:normal;font-weight:normal;font-stretch:normal;font-size:6.3499999px;line-height:1.25;font-family:PORT118;-inkscape-font-specification:PORT118;letter-spacing:0px;word-spacing:0px;fill:#FFF;fill-opacity:1;stroke:none;stroke-width:0.26458332"
       id="path884" />
    <path
       d="m 41.92112,254.89558 q 0.2667,-0.10794 0.53975,-0.17779 0.2794,-0.0762 0.5715,-0.1143 0.13335,-0.0127 0.2667,-0.019 0.1397,-0.0127 0.2794,-0.0127 0.28575,0 0.56515,0.0381 0.57785,0.0762 1.11125,0.29845 v 3.96875 q -0.5334,0.22224 -1.11125,0.29845 -0.2794,0.0381 -0.56515,0.0381 -0.1397,0 -0.2794,-0.0127 -0.13335,-0.006 -0.2667,-0.0191 -0.2921,-0.0381 -0.5715,-0.10795 -0.27305,-0.0762 -0.53975,-0.18415 z m 1.11125,3.25121 q 0.27305,0.1016 0.55245,0.1016 0.2921,0 0.5588,-0.10795 v -2.49555 q -0.127,-0.0508 -0.27305,-0.0825 -0.1397,-0.0317 -0.28575,-0.0317 -0.28575,0 -0.55245,0.10795 z"
       style="font-style:normal;font-variant:normal;font-weight:normal;font-stretch:normal;font-size:6.3499999px;line-height:1.25;font-family:PORT118;-inkscape-font-specification:PORT118;letter-spacing:0px;word-spacing:0px;fill:#FFF;fill-opacity:1;stroke:none;stroke-width:0.26458332"
       id="path886" />
    <path
       d="m 48.649982,258.50063 q 0.09172,0.0367 0.192616,0.0596 0.105481,0.0229 0.210962,0.0229 0.206375,0 0.398991,-0.078 v -0.42651 l -1.605139,-0.56409 v -1.4538 q 0.192617,-0.078 0.38982,-0.12841 0.201789,-0.055 0.41275,-0.078 0.09631,-0.0138 0.192616,-0.0184 0.100895,-0.005 0.201789,-0.005 0.105481,0 0.206375,0.005 0.100895,0.005 0.201789,0.0184 0.417336,0.055 0.80257,0.21555 v 0.74753 h -0.80257 v -0.2981 q -0.09172,-0.0367 -0.197203,-0.0596 -0.100894,-0.0229 -0.206375,-0.0229 -0.206375,0 -0.398991,0.078 v 0.48154 l 1.605139,0.56409 v 1.39877 q -0.376061,0.15134 -0.80257,0.20637 -0.09631,0.009 -0.192616,0.0138 -0.09631,0.009 -0.197203,0.009 -0.105481,0 -0.206375,-0.009 -0.100895,-0.005 -0.206375,-0.0138 -0.210961,-0.0275 -0.41275,-0.078 -0.197203,-0.0505 -0.38982,-0.12841 v -0.75671 h 0.80257 z"
       style="font-style:normal;font-variant:normal;font-weight:normal;font-stretch:normal;font-size:4.58611107px;line-height:1.25;font-family:PORT118;-inkscape-font-specification:PORT118;letter-spacing:0px;word-spacing:0px;fill:#FFF;fill-opacity:1;stroke:none;stroke-width:0.26458332"
       id="path857" />
    <path
       d="m 50.713732,256.07 q 0.192616,-0.078 0.389819,-0.12842 0.201789,-0.055 0.41275,-0.0825 0.09631,-0.009 0.192617,-0.0137 0.100894,-0.009 0.201789,-0.009 0.206375,0 0.408164,0.0275 0.417336,0.055 0.802569,0.21555 v 2.86632 q -0.385233,0.16051 -0.802569,0.21554 -0.201789,0.0275 -0.408164,0.0275 -0.100895,0 -0.201789,-0.009 -0.09631,-0.005 -0.192617,-0.0138 -0.210961,-0.0275 -0.41275,-0.078 -0.197203,-0.055 -0.389819,-0.133 z m 0.802569,2.34808 q 0.197203,0.0734 0.398992,0.0734 0.210961,0 0.403578,-0.078 v -1.80234 q -0.09172,-0.0367 -0.197203,-0.0596 -0.100895,-0.0229 -0.206375,-0.0229 -0.206375,0 -0.398992,0.078 z"
       style="font-style:normal;font-variant:normal;font-weight:normal;font-stretch:normal;font-size:4.58611107px;line-height:1.25;font-family:PORT118;-inkscape-font-specification:PORT118;letter-spacing:0px;word-spacing:0px;fill:#FFF;fill-opacity:1;stroke:none;stroke-width:0.26458332"
       id="path859" />
    <path
       d="m 54.983401,255.9049 q 0.188031,0 0.353131,0.0734 0.1651,0.0688 0.284339,0.19262 0.123825,0.11924 0.192616,0.28434 0.07338,0.1651 0.07338,0.35313 0,0.1972 -0.07796,0.36689 -0.07796,0.16968 -0.210961,0.29351 0.174272,0.12382 0.279753,0.31644 0.110067,0.19262 0.110067,0.42651 0,0.17427 -0.06421,0.3302 -0.05962,0.15593 -0.169686,0.27975 -0.105481,0.11924 -0.252236,0.19721 -0.146756,0.078 -0.316442,0.0963 h -1.605139 v -3.21027 z m 0.14217,2.20592 q 0,-0.15593 -0.110067,-0.26141 -0.105481,-0.11007 -0.261408,-0.11007 h -0.371475 v 0.74754 h 0.371475 q 0.155927,0 0.261408,-0.11007 0.110067,-0.11007 0.110067,-0.26599 z m -0.09172,-1.27953 q 0,-0.133 -0.09631,-0.22931 -0.09631,-0.0963 -0.229305,-0.0963 h -0.325614 v 0.65581 h 0.325614 q 0.132997,0 0.229305,-0.0963 0.09631,-0.0963 0.09631,-0.23389 z"
       style="font-style:normal;font-variant:normal;font-weight:normal;font-stretch:normal;font-size:4.58611107px;line-height:1.25;font-family:PORT118;-inkscape-font-specification:PORT118;letter-spacing:0px;word-spacing:0px;fill:#FFF;fill-opacity:1;stroke:none;stroke-width:0.26458332"
       id="path861" />
    <path
       d="m 57.647932,255.9049 q 0.206375,0 0.389819,0.078 0.183444,0.078 0.321028,0.21555 0.137583,0.13758 0.215547,0.32102 0.07796,0.18345 0.07796,0.38982 0,0.24765 -0.110067,0.4632 -0.110066,0.21096 -0.298097,0.34855 l 0.609953,1.39417 h -0.80257 l -0.527402,-1.20156 H 57.24894 v 1.20156 h -0.80257 v -3.21027 z m -0.398992,1.34373 h 0.302683 q 0.146756,0 0.24765,-0.1009 0.105481,-0.10089 0.105481,-0.24765 0,-0.14675 -0.105481,-0.24765 -0.100894,-0.10548 -0.24765,-0.10548 H 57.24894 Z"
       style="font-style:normal;font-variant:normal;font-weight:normal;font-stretch:normal;font-size:4.58611107px;line-height:1.25;font-family:PORT118;-inkscape-font-specification:PORT118;letter-spacing:0px;word-spacing:0px;fill:#FFF;fill-opacity:1;stroke:none;stroke-width:0.26458332"
       id="path863" />
    <path
       d="m 61.473823,256.65243 h -1.407936 v 0.45861 h 1.018117 v 0.71544 h -1.018117 v 0.60536 q 0.155928,0.0138 0.298097,0.0138 0.298097,0 0.573264,-0.0505 0.275167,-0.055 0.536575,-0.15134 v 0.74295 q -0.261408,0.0963 -0.536575,0.14676 -0.275167,0.055 -0.573264,0.055 -0.288925,0 -0.564092,-0.0505 -0.275166,-0.0504 -0.531988,-0.14217 v -3.09103 h 2.205919 z"
       style="font-style:normal;font-variant:normal;font-weight:normal;font-stretch:normal;font-size:4.58611107px;line-height:1.25;font-family:PORT118;-inkscape-font-specification:PORT118;letter-spacing:0px;word-spacing:0px;fill:#FFF;fill-opacity:1;stroke:none;stroke-width:0.26458332"
       id="path865" />
    <!--<path
       d="m 10.378078,269.83517 -0.160514,-0.60995 q -0.206375,0.0734 -0.4448527,0.0734 -0.2338916,0 -0.4402666,-0.0688 l -0.1605139,0.60536 H 8.3693613 l 1.0043584,-3.21027 h 0.8025693 l 1.004358,3.21027 z m -0.8805333,-1.25659 q 0.1284111,0.0413 0.2751666,0.0413 0.073378,0 0.1421695,-0.009 0.073378,-0.0138 0.1375832,-0.0367 l -0.2751666,-1.20156 z"
       style="font-style:normal;font-variant:normal;font-weight:normal;font-stretch:normal;font-size:4.58611107px;line-height:1.25;font-family:PORT118;-inkscape-font-specification:PORT118;letter-spacing:0px;word-spacing:0px;fill:#FFF;fill-opacity:1;stroke:none;stroke-width:0.26458332"
       id="path854" />-->
    <path
       d="m 18.045233,269.83518 v -1.52506 l -2.037292,-3.0734 v 4.59846 h -2.037292 v -8.14917 h 2.037292 l 2.037292,3.06176 v -3.06176 h 2.037291 v 0 8.14917 z"
       style="font-style:normal;font-variant:normal;font-weight:normal;font-stretch:normal;font-size:11.64166641px;line-height:1.25;font-family:PORT118;-inkscape-font-specification:PORT118;letter-spacing:0px;word-spacing:0px;fill:#FFF;fill-opacity:1;stroke:none;stroke-width:0.26458332"
       id="path839" />
    <path
       d="m 26.229324,269.83518 -0.407458,-1.54835 q -0.523875,0.18627 -1.129242,0.18627 -0.593725,0 -1.1176,-0.17462 l -0.407458,1.5367 h -2.037292 l 2.549525,-8.14917 h 2.037292 l 2.549525,8.14917 z m -2.2352,-3.18982 q 0.325967,0.10477 0.6985,0.10477 0.186267,0 0.360892,-0.0233 0.186266,-0.0349 0.34925,-0.0931 l -0.6985,-3.05012 z"
       style="font-style:normal;font-variant:normal;font-weight:normal;font-stretch:normal;font-size:11.64166641px;line-height:1.25;font-family:PORT118;-inkscape-font-specification:PORT118;letter-spacing:0px;word-spacing:0px;fill:#FFF;fill-opacity:1;stroke:none;stroke-width:0.26458332"
       id="path841" />
    <path
       d="m 31.355841,268.054 q 0.48895,0.19791 1.012825,0.19791 0.535517,0 1.024467,-0.19791 v -6.36799 h 2.037292 v 7.74171 q -0.48895,0.19791 -1.001184,0.32596 -0.500591,0.12806 -1.036108,0.19791 -0.512233,0.0698 -1.04775,0.0698 -0.500592,0 -0.989542,-0.0698 -0.535516,-0.0582 -1.04775,-0.18626 -0.500591,-0.1397 -0.989541,-0.33761 v -7.74171 h 2.037291 z"
       style="font-style:normal;font-variant:normal;font-weight:normal;font-stretch:normal;font-size:11.64166641px;line-height:1.25;font-family:PORT118;-inkscape-font-specification:PORT118;letter-spacing:0px;word-spacing:0px;fill:#FFF;fill-opacity:1;stroke:none;stroke-width:0.26458332"
       id="path843" />
    <path
       d="m 42.706466,261.68601 v 2.03729 h -2.037292 v 6.11188 h -2.037292 v -6.11188 h -2.037291 v -2.03729 z"
       style="font-style:normal;font-variant:normal;font-weight:normal;font-stretch:normal;font-size:11.64166641px;line-height:1.25;font-family:PORT118;-inkscape-font-specification:PORT118;letter-spacing:0px;word-spacing:0px;fill:#FFF;fill-opacity:1;stroke:none;stroke-width:0.26458332"
       id="path845" />
    <path
       d="m 43.870632,261.68601 h 2.037291 v 8.14917 h -2.037291 z"
       style="font-style:normal;font-variant:normal;font-weight:normal;font-stretch:normal;font-size:11.64166641px;line-height:1.25;font-family:PORT118;-inkscape-font-specification:PORT118;letter-spacing:0px;word-spacing:0px;fill:#FFF;fill-opacity:1;stroke:none;stroke-width:0.26458332"
       id="path847" />
    <path
       d="m 47.076637,261.68601 h 5.599641 v 1.89759 h -3.562349 v 4.51697 q 0.360891,0.0349 0.745066,0.0349 1.490133,0 2.817283,-0.51223 v 1.88595 q -0.663575,0.24447 -1.373716,0.37253 -0.6985,0.1397 -1.443567,0.1397 -0.733425,0 -1.431925,-0.12806 -0.6985,-0.12805 -1.350433,-0.36089 z"
       style="font-style:normal;font-variant:normal;font-weight:normal;font-stretch:normal;font-size:11.64166641px;line-height:1.25;font-family:PORT118;-inkscape-font-specification:PORT118;letter-spacing:0px;word-spacing:0px;fill:#FFF;fill-opacity:1;stroke:none;stroke-width:0.26458332"
       id="path849" />
    <path
       d="m 58.812349,269.83518 -0.407459,-1.54835 q -0.523875,0.18627 -1.129241,0.18627 -0.593725,0 -1.1176,-0.17462 l -0.407459,1.5367 h -2.037291 l 2.549525,-8.14917 h 2.037291 l 2.549525,8.14917 z m -2.2352,-3.18982 q 0.325966,0.10477 0.6985,0.10477 0.186266,0 0.360891,-0.0233 0.186267,-0.0349 0.34925,-0.0931 l -0.6985,-3.05012 z"
       style="font-style:normal;font-variant:normal;font-weight:normal;font-stretch:normal;font-size:11.64166641px;line-height:1.25;font-family:PORT118;-inkscape-font-specification:PORT118;letter-spacing:0px;word-spacing:0px;fill:#FFF;fill-opacity:1;stroke:none;stroke-width:0.26458332"
       id="path851" />
    <path
       id="path912"
       style="font-style:normal;font-variant:normal;font-weight:normal;font-stretch:normal;font-size:11.64166641px;line-height:1.25;font-family:PORT118;-inkscape-font-specification:PORT118;letter-spacing:0px;word-spacing:0px;fill:#FFF;fill-opacity:1;stroke:none;stroke-width:0.26458332"
       d="m 27.446471,259.73882 0.644241,0.7371 -1.486416,1.03327 -0.512493,-0.58636 z" />
  </g>
</svg>
